<svg xmlns="http://www.w3.org/2000/svg" viewBox="0 0 31.43 31.43"><defs><style>.cls-1{fill:#e0b449;stroke:#e0b449;}.cls-1,.cls-2{stroke-miterlimit:10;}.cls-2,.cls-3{fill:none;stroke:#1d1d1b;stroke-width:0.5px;}.cls-3{stroke-linecap:round;stroke-linejoin:round;}</style></defs><g id="Layer_2" data-name="Layer 2"><g id="Layer_1-2" data-name="Layer 1"><circle class="cls-1" cx="15.72" cy="15.72" r="15.22"/><rect class="cls-2" x="13.12" y="23.22" width="6.3" height="1.31"/><path class="cls-3" d="M11.35,22.76C6.86,21.27,6.24,14.9,6.24,14.9h19s0,6.34-4.07,7.86"/><path class="cls-3" d="M10.22,20.24a4.53,4.53,0,0,1-1.16-1.57"/><path class="cls-3" d="M12.27,21.74a2,2,0,0,1-1.19-.66"/><path class="cls-3" d="M16.28,14l3-4.71c-.47-.61-.92-1.25-.53-1.79A1.77,1.77,0,0,1,20.81,7c.82.22,1.46,1.27,1.05,1.94s-1.64.63-1.64.63L18.09,14"/></g></g></svg>