<svg xmlns="http://www.w3.org/2000/svg" viewBox="0 0 19.46 18.12"><defs><style>.cls-1,.cls-2{fill:none;stroke:#1d1d1b;stroke-width:0.5px;}.cls-1{stroke-miterlimit:10;}.cls-2{stroke-linecap:round;stroke-linejoin:round;}</style></defs><g id="Layer_2" data-name="Layer 2"><g id="Layer_1-2" data-name="Layer 1"><rect class="cls-1" x="7.13" y="16.56" width="6.3" height="1.31"/><path class="cls-2" d="M5.36,16.11C.87,14.61.25,8.24.25,8.24h19s0,6.35-4.08,7.87"/><path class="cls-2" d="M4.23,13.58A4.53,4.53,0,0,1,3.07,12"/><path class="cls-2" d="M6.28,15.08a2,2,0,0,1-1.19-.65"/><path class="cls-2" d="M10.29,7.35l3-4.7C12.79,2,12.34,1.4,12.73.86A1.78,1.78,0,0,1,14.82.37c.82.23,1.46,1.27,1,1.94S14.23,3,14.23,3L12.1,7.31"/></g></g></svg>