<svg xmlns="http://www.w3.org/2000/svg" viewBox="0 0 11.55 17.18"><defs><style>.cls-1{fill:none;}.cls-1,.cls-2{stroke:#1d1d1b;stroke-miterlimit:10;stroke-width:0.5px;}.cls-2{fill:#1d1d1b;}</style></defs><g id="Layer_2" data-name="Layer 2"><g id="Layer_1-2" data-name="Layer 1"><path class="cls-1" d="M10.86,16.21c-.5.79-1.86.71-1.86.71H2.59A2.46,2.46,0,0,1,1,16.31a2.44,2.44,0,0,1-.7-1.82V2.34A2.32,2.32,0,0,1,1.05.78,3,3,0,0,1,2.66.25H9a2.27,2.27,0,0,1,1.69.6,2.88,2.88,0,0,1,.65,2v11.6A3.2,3.2,0,0,1,10.86,16.21Z"/><rect class="cls-1" x="2" y="1.85" width="7.55" height="12.03"/><circle class="cls-2" cx="5.77" cy="15.35" r="0.49"/></g></g></svg>